<?xml version="1.0" encoding="UTF-8" standalone="no"?>
<!DOCTYPE svg PUBLIC "-//W3C//DTD SVG 1.1//EN"
 "http://www.w3.org/Graphics/SVG/1.1/DTD/svg11.dtd">
<!-- Generated by graphviz version 2.40.1 (20161225.0304)
 -->
<!-- Title: %3 Pages: 1 -->
<svg width="1009pt" height="548pt"
 viewBox="0.00 0.00 1009.19 548.00" xmlns="http://www.w3.org/2000/svg" xmlns:xlink="http://www.w3.org/1999/xlink">
<g id="graph0" class="graph" transform="scale(1 1) rotate(0) translate(4 544)">
<title>%3</title>
<polygon fill="#ffffff" stroke="transparent" points="-4,4 -4,-544 1005.1938,-544 1005.1938,4 -4,4"/>
<!-- sqgate_3858 -->
<g id="node1" class="node">
<title>sqgate_3858</title>
<ellipse fill="none" stroke="#000000" cx="911.1938" cy="-522" rx="70.3881" ry="18"/>
<text text-anchor="middle" x="911.1938" y="-518.3" font-family="Times,serif" font-size="14.00" fill="#000000">sqgate_3858</text>
</g>
<!-- sqgate_3854 -->
<g id="node2" class="node">
<title>sqgate_3854</title>
<ellipse fill="none" stroke="#000000" cx="862.1938" cy="-450" rx="70.3881" ry="18"/>
<text text-anchor="middle" x="862.1938" y="-446.3" font-family="Times,serif" font-size="14.00" fill="#000000">sqgate_3854</text>
</g>
<!-- sqgate_3858&#45;&gt;sqgate_3854 -->
<g id="edge1" class="edge">
<title>sqgate_3858&#45;&gt;sqgate_3854</title>
<path fill="none" stroke="#000000" d="M899.0814,-504.2022C893.3686,-495.8079 886.4364,-485.6218 880.1304,-476.3558"/>
<polygon fill="#000000" stroke="#000000" points="882.8564,-474.1405 874.3366,-467.8425 877.0694,-478.0789 882.8564,-474.1405"/>
</g>
<!-- x -->
<g id="node14" class="node">
<title>x</title>
<ellipse fill="none" stroke="#000000" cx="697.1938" cy="-162" rx="27" ry="18"/>
<text text-anchor="middle" x="697.1938" y="-158.3" font-family="Times,serif" font-size="14.00" fill="#000000">x</text>
</g>
<!-- sqgate_3858&#45;&gt;x -->
<g id="edge56" class="edge">
<title>sqgate_3858&#45;&gt;x</title>
<path fill="none" stroke="#000000" d="M931.1677,-504.6566C957.6824,-479.596 1001.1938,-430.4765 1001.1938,-378 1001.1938,-378 1001.1938,-378 1001.1938,-306 1001.1938,-247.1757 812.9372,-191.7589 732.715,-170.8145"/>
<polygon fill="#000000" stroke="#000000" points="733.1469,-167.3115 722.5898,-168.2047 731.3997,-174.0899 733.1469,-167.3115"/>
</g>
<!-- sqgate_3861 -->
<g id="node16" class="node">
<title>sqgate_3861</title>
<ellipse fill="none" stroke="#000000" cx="816.1938" cy="-306" rx="70.3881" ry="18"/>
<text text-anchor="middle" x="816.1938" y="-302.3" font-family="Times,serif" font-size="14.00" fill="#000000">sqgate_3861</text>
</g>
<!-- sqgate_3858&#45;&gt;sqgate_3861 -->
<g id="edge36" class="edge">
<title>sqgate_3858&#45;&gt;sqgate_3861</title>
<path fill="none" stroke="#000000" d="M924.236,-504.0027C930.7151,-493.9451 937.858,-480.8733 941.1938,-468 953.2342,-421.5346 967.5593,-400.1106 941.1938,-360 928.1294,-340.1249 906.0266,-327.5314 884.0077,-319.5658"/>
<polygon fill="#000000" stroke="#000000" points="884.8611,-316.1612 874.2675,-316.3249 882.6511,-322.8031 884.8611,-316.1612"/>
</g>
<!-- sqgate_3857 -->
<g id="node21" class="node">
<title>sqgate_3857</title>
<ellipse fill="none" stroke="#000000" cx="552.1938" cy="-450" rx="70.3881" ry="18"/>
<text text-anchor="middle" x="552.1938" y="-446.3" font-family="Times,serif" font-size="14.00" fill="#000000">sqgate_3857</text>
</g>
<!-- sqgate_3858&#45;&gt;sqgate_3857 -->
<g id="edge37" class="edge">
<title>sqgate_3858&#45;&gt;sqgate_3857</title>
<path fill="none" stroke="#000000" d="M855.8868,-510.9078C791.7181,-498.0383 686.0166,-476.8391 617.7675,-463.1513"/>
<polygon fill="#000000" stroke="#000000" points="618.0566,-459.6396 607.5636,-461.1048 616.6801,-466.503 618.0566,-459.6396"/>
</g>
<!-- sqgate_3864 -->
<g id="node3" class="node">
<title>sqgate_3864</title>
<ellipse fill="none" stroke="#000000" cx="704.1938" cy="-378" rx="70.3881" ry="18"/>
<text text-anchor="middle" x="704.1938" y="-374.3" font-family="Times,serif" font-size="14.00" fill="#000000">sqgate_3864</text>
</g>
<!-- sqgate_3854&#45;&gt;sqgate_3864 -->
<g id="edge2" class="edge">
<title>sqgate_3854&#45;&gt;sqgate_3864</title>
<path fill="none" stroke="#000000" d="M827.52,-434.1993C804.1607,-423.5546 773.1567,-409.4262 748.0793,-397.9985"/>
<polygon fill="#000000" stroke="#000000" points="749.3377,-394.7257 738.7867,-393.7638 746.435,-401.0955 749.3377,-394.7257"/>
</g>
<!-- sqgate_3860 -->
<g id="node19" class="node">
<title>sqgate_3860</title>
<ellipse fill="none" stroke="#000000" cx="862.1938" cy="-378" rx="70.3881" ry="18"/>
<text text-anchor="middle" x="862.1938" y="-374.3" font-family="Times,serif" font-size="14.00" fill="#000000">sqgate_3860</text>
</g>
<!-- sqgate_3854&#45;&gt;sqgate_3860 -->
<g id="edge34" class="edge">
<title>sqgate_3854&#45;&gt;sqgate_3860</title>
<path fill="none" stroke="#000000" d="M862.1938,-431.8314C862.1938,-424.131 862.1938,-414.9743 862.1938,-406.4166"/>
<polygon fill="#000000" stroke="#000000" points="865.6939,-406.4132 862.1938,-396.4133 858.6939,-406.4133 865.6939,-406.4132"/>
</g>
<!-- sqgate_3866 -->
<g id="node4" class="node">
<title>sqgate_3866</title>
<ellipse fill="none" stroke="#000000" cx="500.1938" cy="-306" rx="70.3881" ry="18"/>
<text text-anchor="middle" x="500.1938" y="-302.3" font-family="Times,serif" font-size="14.00" fill="#000000">sqgate_3866</text>
</g>
<!-- sqgate_3864&#45;&gt;sqgate_3866 -->
<g id="edge3" class="edge">
<title>sqgate_3864&#45;&gt;sqgate_3866</title>
<path fill="none" stroke="#000000" d="M662.9113,-363.4297C630.6663,-352.0491 585.6928,-336.1761 551.1969,-324.0011"/>
<polygon fill="#000000" stroke="#000000" points="552.3592,-320.6998 541.7644,-320.672 550.0294,-327.3007 552.3592,-320.6998"/>
</g>
<!-- sqgate_3864&#45;&gt;sqgate_3861 -->
<g id="edge24" class="edge">
<title>sqgate_3864&#45;&gt;sqgate_3861</title>
<path fill="none" stroke="#000000" d="M730.4528,-361.1192C745.6186,-351.3697 764.8842,-338.9847 781.31,-328.4253"/>
<polygon fill="#000000" stroke="#000000" points="783.5801,-331.1268 790.0993,-322.775 779.7948,-325.2385 783.5801,-331.1268"/>
</g>
<!-- sqgate_3867 -->
<g id="node5" class="node">
<title>sqgate_3867</title>
<ellipse fill="none" stroke="#000000" cx="228.1938" cy="-234" rx="70.3881" ry="18"/>
<text text-anchor="middle" x="228.1938" y="-230.3" font-family="Times,serif" font-size="14.00" fill="#000000">sqgate_3867</text>
</g>
<!-- sqgate_3866&#45;&gt;sqgate_3867 -->
<g id="edge4" class="edge">
<title>sqgate_3866&#45;&gt;sqgate_3867</title>
<path fill="none" stroke="#000000" d="M451.2515,-293.0447C405.1758,-280.8482 336.1011,-262.5637 287.0417,-249.5774"/>
<polygon fill="#000000" stroke="#000000" points="287.7639,-246.1481 277.2012,-246.9726 285.9726,-252.915 287.7639,-246.1481"/>
</g>
<!-- sqgate_3855 -->
<g id="node10" class="node">
<title>sqgate_3855</title>
<ellipse fill="none" stroke="#000000" cx="538.1938" cy="-234" rx="70.3881" ry="18"/>
<text text-anchor="middle" x="538.1938" y="-230.3" font-family="Times,serif" font-size="14.00" fill="#000000">sqgate_3855</text>
</g>
<!-- sqgate_3866&#45;&gt;sqgate_3855 -->
<g id="edge11" class="edge">
<title>sqgate_3866&#45;&gt;sqgate_3855</title>
<path fill="none" stroke="#000000" d="M509.7828,-287.8314C514.0908,-279.6688 519.2624,-269.87 524.0057,-260.8827"/>
<polygon fill="#000000" stroke="#000000" points="527.1672,-262.3909 528.7395,-251.9134 520.9765,-259.1236 527.1672,-262.3909"/>
</g>
<!-- sqgate_3866&#45;&gt;x -->
<g id="edge20" class="edge">
<title>sqgate_3866&#45;&gt;x</title>
<path fill="none" stroke="#000000" d="M481.7688,-288.5523C463.5653,-269.2062 440.893,-237.8507 459.1938,-216 517.747,-146.0889 574.6309,-208.6867 661.1938,-180 663.0842,-179.3735 664.9998,-178.6635 666.9117,-177.8962"/>
<polygon fill="#000000" stroke="#000000" points="668.5991,-180.9759 676.3051,-173.7049 665.7468,-174.5834 668.5991,-180.9759"/>
</g>
<!-- sqgate_3856 -->
<g id="node15" class="node">
<title>sqgate_3856</title>
<ellipse fill="none" stroke="#000000" cx="696.1938" cy="-234" rx="70.3881" ry="18"/>
<text text-anchor="middle" x="696.1938" y="-230.3" font-family="Times,serif" font-size="14.00" fill="#000000">sqgate_3856</text>
</g>
<!-- sqgate_3866&#45;&gt;sqgate_3856 -->
<g id="edge21" class="edge">
<title>sqgate_3866&#45;&gt;sqgate_3856</title>
<path fill="none" stroke="#000000" d="M540.8051,-291.0816C571.5234,-279.7973 613.8568,-264.2462 646.5808,-252.2252"/>
<polygon fill="#000000" stroke="#000000" points="647.7904,-255.5096 655.9702,-248.776 645.3767,-248.9389 647.7904,-255.5096"/>
</g>
<!-- sqgate_3871 -->
<g id="node6" class="node">
<title>sqgate_3871</title>
<ellipse fill="none" stroke="#000000" cx="70.1938" cy="-90" rx="70.3881" ry="18"/>
<text text-anchor="middle" x="70.1938" y="-86.3" font-family="Times,serif" font-size="14.00" fill="#000000">sqgate_3871</text>
</g>
<!-- sqgate_3867&#45;&gt;sqgate_3871 -->
<g id="edge5" class="edge">
<title>sqgate_3867&#45;&gt;sqgate_3871</title>
<path fill="none" stroke="#000000" d="M209.1353,-216.6302C181.1395,-191.1151 128.7801,-143.3951 96.9442,-114.3801"/>
<polygon fill="#000000" stroke="#000000" points="99.0684,-111.5806 89.3199,-107.4314 94.3532,-116.7543 99.0684,-111.5806"/>
</g>
<!-- sqgate_3876 -->
<g id="node9" class="node">
<title>sqgate_3876</title>
<ellipse fill="none" stroke="#000000" cx="228.1938" cy="-90" rx="70.3881" ry="18"/>
<text text-anchor="middle" x="228.1938" y="-86.3" font-family="Times,serif" font-size="14.00" fill="#000000">sqgate_3876</text>
</g>
<!-- sqgate_3867&#45;&gt;sqgate_3876 -->
<g id="edge8" class="edge">
<title>sqgate_3867&#45;&gt;sqgate_3876</title>
<path fill="none" stroke="#000000" d="M228.1938,-215.7623C228.1938,-191.201 228.1938,-147.2474 228.1938,-118.3541"/>
<polygon fill="#000000" stroke="#000000" points="231.6939,-118.0896 228.1938,-108.0896 224.6939,-118.0897 231.6939,-118.0896"/>
</g>
<!-- ccx -->
<g id="node7" class="node">
<title>ccx</title>
<ellipse fill="none" stroke="#000000" cx="448.1938" cy="-18" rx="27" ry="18"/>
<text text-anchor="middle" x="448.1938" y="-14.3" font-family="Times,serif" font-size="14.00" fill="#000000">ccx</text>
</g>
<!-- sqgate_3871&#45;&gt;ccx -->
<g id="edge6" class="edge">
<title>sqgate_3871&#45;&gt;ccx</title>
<path fill="none" stroke="#000000" d="M122.3897,-77.7559C131.317,-75.7625 140.5107,-73.7723 149.1938,-72 243.5854,-52.7332 355.4742,-33.4732 411.854,-24.0161"/>
<polygon fill="#000000" stroke="#000000" points="412.4329,-27.468 421.7186,-22.3666 411.2783,-20.5639 412.4329,-27.468"/>
</g>
<!-- cx -->
<g id="node8" class="node">
<title>cx</title>
<ellipse fill="none" stroke="#000000" cx="533.1938" cy="-18" rx="27" ry="18"/>
<text text-anchor="middle" x="533.1938" y="-14.3" font-family="Times,serif" font-size="14.00" fill="#000000">cx</text>
</g>
<!-- sqgate_3871&#45;&gt;cx -->
<g id="edge7" class="edge">
<title>sqgate_3871&#45;&gt;cx</title>
<path fill="none" stroke="#000000" d="M121.0161,-77.5005C130.3502,-75.4673 140.0366,-73.5299 149.1938,-72 296.8928,-47.3244 338.3756,-70.0729 484.1938,-36 489.5991,-34.737 495.2229,-33.0479 500.6511,-31.209"/>
<polygon fill="#000000" stroke="#000000" points="501.8999,-34.4794 510.1214,-27.7967 499.527,-27.8938 501.8999,-34.4794"/>
</g>
<!-- sqgate_3876&#45;&gt;ccx -->
<g id="edge9" class="edge">
<title>sqgate_3876&#45;&gt;ccx</title>
<path fill="none" stroke="#000000" d="M271.6587,-75.7751C313.5011,-62.0812 375.9175,-41.6541 414.2328,-29.1145"/>
<polygon fill="#000000" stroke="#000000" points="415.4799,-32.3891 423.8953,-25.9522 413.3026,-25.7363 415.4799,-32.3891"/>
</g>
<!-- sqgate_3876&#45;&gt;cx -->
<g id="edge10" class="edge">
<title>sqgate_3876&#45;&gt;cx</title>
<path fill="none" stroke="#000000" d="M280.4238,-77.9184C289.3471,-75.9062 298.5307,-73.8676 307.1938,-72 385.6681,-55.0819 406.9623,-57.9032 484.1938,-36 489.5341,-34.4855 495.124,-32.6652 500.5383,-30.7723"/>
<polygon fill="#000000" stroke="#000000" points="501.7969,-34.039 510.0026,-27.3369 499.4084,-27.4591 501.7969,-34.039"/>
</g>
<!-- sqgate_3870 -->
<g id="node11" class="node">
<title>sqgate_3870</title>
<ellipse fill="none" stroke="#000000" cx="582.1938" cy="-162" rx="70.3881" ry="18"/>
<text text-anchor="middle" x="582.1938" y="-158.3" font-family="Times,serif" font-size="14.00" fill="#000000">sqgate_3870</text>
</g>
<!-- sqgate_3855&#45;&gt;sqgate_3870 -->
<g id="edge12" class="edge">
<title>sqgate_3855&#45;&gt;sqgate_3870</title>
<path fill="none" stroke="#000000" d="M549.0702,-216.2022C554.1472,-207.8944 560.2967,-197.8316 565.9121,-188.6427"/>
<polygon fill="#000000" stroke="#000000" points="569.0619,-190.2005 571.29,-179.8425 563.089,-186.5503 569.0619,-190.2005"/>
</g>
<!-- sqgate_3855&#45;&gt;x -->
<g id="edge19" class="edge">
<title>sqgate_3855&#45;&gt;x</title>
<path fill="none" stroke="#000000" d="M574.7374,-218.5241C599.3183,-207.9755 632.374,-193.5209 661.1938,-180 662.9493,-179.1764 664.7472,-178.3199 666.5577,-177.4472"/>
<polygon fill="#000000" stroke="#000000" points="668.1376,-180.5707 675.5772,-173.0272 665.0572,-174.2848 668.1376,-180.5707"/>
</g>
<!-- sqgate_3873 -->
<g id="node12" class="node">
<title>sqgate_3873</title>
<ellipse fill="none" stroke="#000000" cx="582.1938" cy="-90" rx="70.3881" ry="18"/>
<text text-anchor="middle" x="582.1938" y="-86.3" font-family="Times,serif" font-size="14.00" fill="#000000">sqgate_3873</text>
</g>
<!-- sqgate_3870&#45;&gt;sqgate_3873 -->
<g id="edge13" class="edge">
<title>sqgate_3870&#45;&gt;sqgate_3873</title>
<path fill="none" stroke="#000000" d="M582.1938,-143.8314C582.1938,-136.131 582.1938,-126.9743 582.1938,-118.4166"/>
<polygon fill="#000000" stroke="#000000" points="585.6939,-118.4132 582.1938,-108.4133 578.6939,-118.4133 585.6939,-118.4132"/>
</g>
<!-- sqgate_3874 -->
<g id="node13" class="node">
<title>sqgate_3874</title>
<ellipse fill="none" stroke="#000000" cx="740.1938" cy="-90" rx="70.3881" ry="18"/>
<text text-anchor="middle" x="740.1938" y="-86.3" font-family="Times,serif" font-size="14.00" fill="#000000">sqgate_3874</text>
</g>
<!-- sqgate_3870&#45;&gt;sqgate_3874 -->
<g id="edge16" class="edge">
<title>sqgate_3870&#45;&gt;sqgate_3874</title>
<path fill="none" stroke="#000000" d="M616.8675,-146.1993C640.2268,-135.5546 671.2308,-121.4262 696.3082,-109.9985"/>
<polygon fill="#000000" stroke="#000000" points="697.9525,-113.0955 705.6009,-105.7638 695.0498,-106.7257 697.9525,-113.0955"/>
</g>
<!-- sqgate_3873&#45;&gt;ccx -->
<g id="edge14" class="edge">
<title>sqgate_3873&#45;&gt;ccx</title>
<path fill="none" stroke="#000000" d="M551.7871,-73.6621C529.7607,-61.827 500.1228,-45.9021 478.1914,-34.1181"/>
<polygon fill="#000000" stroke="#000000" points="479.7742,-30.9954 469.3087,-29.3453 476.461,-37.1617 479.7742,-30.9954"/>
</g>
<!-- sqgate_3873&#45;&gt;cx -->
<g id="edge15" class="edge">
<title>sqgate_3873&#45;&gt;cx</title>
<path fill="none" stroke="#000000" d="M570.0814,-72.2022C564.0927,-63.4025 556.764,-52.6338 550.2214,-43.0202"/>
<polygon fill="#000000" stroke="#000000" points="553.0147,-40.9038 544.495,-34.6058 547.2277,-44.8422 553.0147,-40.9038"/>
</g>
<!-- sqgate_3874&#45;&gt;ccx -->
<g id="edge17" class="edge">
<title>sqgate_3874&#45;&gt;ccx</title>
<path fill="none" stroke="#000000" d="M687.5137,-77.9358C678.7271,-75.9411 669.7049,-73.9037 661.1938,-72 588.369,-55.7108 568.8275,-56.9142 497.1938,-36 491.8653,-34.4443 486.2816,-32.6026 480.8698,-30.7009"/>
<polygon fill="#000000" stroke="#000000" points="482.0007,-27.3879 471.4066,-27.2616 479.6097,-33.9669 482.0007,-27.3879"/>
</g>
<!-- sqgate_3874&#45;&gt;cx -->
<g id="edge18" class="edge">
<title>sqgate_3874&#45;&gt;cx</title>
<path fill="none" stroke="#000000" d="M698.3042,-75.4297C659.5378,-61.9458 602.6406,-42.1554 566.7774,-29.6812"/>
<polygon fill="#000000" stroke="#000000" points="567.8472,-26.3478 557.2524,-26.3682 565.5475,-32.9592 567.8472,-26.3478"/>
</g>
<!-- sqgate_3856&#45;&gt;sqgate_3870 -->
<g id="edge22" class="edge">
<title>sqgate_3856&#45;&gt;sqgate_3870</title>
<path fill="none" stroke="#000000" d="M669.7533,-217.3008C654.1822,-207.4663 634.2912,-194.9036 617.404,-184.238"/>
<polygon fill="#000000" stroke="#000000" points="619.2096,-181.2388 608.8857,-178.8581 615.4716,-187.1573 619.2096,-181.2388"/>
</g>
<!-- sqgate_3856&#45;&gt;x -->
<g id="edge23" class="edge">
<title>sqgate_3856&#45;&gt;x</title>
<path fill="none" stroke="#000000" d="M696.4461,-215.8314C696.5531,-208.131 696.6802,-198.9743 696.7991,-190.4166"/>
<polygon fill="#000000" stroke="#000000" points="700.2987,-190.4609 696.938,-180.4133 693.2994,-190.3637 700.2987,-190.4609"/>
</g>
<!-- sqgate_3861&#45;&gt;sqgate_3855 -->
<g id="edge25" class="edge">
<title>sqgate_3861&#45;&gt;sqgate_3855</title>
<path fill="none" stroke="#000000" d="M766.4929,-293.1278C719.2006,-280.8795 647.9917,-262.4369 597.6986,-249.4113"/>
<polygon fill="#000000" stroke="#000000" points="598.4903,-246.001 587.9322,-246.8819 596.7352,-252.7774 598.4903,-246.001"/>
</g>
<!-- sqgate_3861&#45;&gt;x -->
<g id="edge26" class="edge">
<title>sqgate_3861&#45;&gt;x</title>
<path fill="none" stroke="#000000" d="M815.4315,-287.9756C813.7532,-268.4053 808.4953,-237.1234 792.1938,-216 776.7847,-196.0329 751.7594,-182.2411 731.2613,-173.5955"/>
<polygon fill="#000000" stroke="#000000" points="732.5044,-170.3233 721.9192,-169.8711 729.9121,-176.8256 732.5044,-170.3233"/>
</g>
<!-- sqgate_3861&#45;&gt;sqgate_3856 -->
<g id="edge27" class="edge">
<title>sqgate_3861&#45;&gt;sqgate_3856</title>
<path fill="none" stroke="#000000" d="M788.3617,-289.3008C771.8531,-279.3956 750.7316,-266.7227 732.874,-256.0082"/>
<polygon fill="#000000" stroke="#000000" points="734.2506,-252.7524 723.8749,-250.6087 730.6491,-258.7549 734.2506,-252.7524"/>
</g>
<!-- sqgate_3869 -->
<g id="node17" class="node">
<title>sqgate_3869</title>
<ellipse fill="none" stroke="#000000" cx="891.1938" cy="-162" rx="70.3881" ry="18"/>
<text text-anchor="middle" x="891.1938" y="-158.3" font-family="Times,serif" font-size="14.00" fill="#000000">sqgate_3869</text>
</g>
<!-- sqgate_3861&#45;&gt;sqgate_3869 -->
<g id="edge28" class="edge">
<title>sqgate_3861&#45;&gt;sqgate_3869</title>
<path fill="none" stroke="#000000" d="M826.3905,-288.1065C832.2894,-277.642 839.7894,-264.142 846.1938,-252 857.1964,-231.1403 869.1088,-207.2529 877.9117,-189.3319"/>
<polygon fill="#000000" stroke="#000000" points="881.2038,-190.5672 882.4568,-180.0467 874.9166,-187.4896 881.2038,-190.5672"/>
</g>
<!-- sqgate_3869&#45;&gt;cx -->
<g id="edge32" class="edge">
<title>sqgate_3869&#45;&gt;cx</title>
<path fill="none" stroke="#000000" d="M931.7943,-147.0485C949.033,-138.4421 967.3839,-125.7431 977.1938,-108 984.9355,-93.9976 987.8026,-83.9772 977.1938,-72 950.3413,-41.6838 672.4021,-24.9173 570.4351,-19.7493"/>
<polygon fill="#000000" stroke="#000000" points="570.4512,-16.2458 560.2895,-19.2441 570.103,-23.2372 570.4512,-16.2458"/>
</g>
<!-- sqgate_3869&#45;&gt;sqgate_3874 -->
<g id="edge33" class="edge">
<title>sqgate_3869&#45;&gt;sqgate_3874</title>
<path fill="none" stroke="#000000" d="M857.682,-146.0209C835.5911,-135.4875 806.4683,-121.6011 782.7448,-110.2892"/>
<polygon fill="#000000" stroke="#000000" points="784.1447,-107.0793 773.6119,-105.9345 781.1319,-113.3977 784.1447,-107.0793"/>
</g>
<!-- sqgate_3875 -->
<g id="node18" class="node">
<title>sqgate_3875</title>
<ellipse fill="none" stroke="#000000" cx="898.1938" cy="-90" rx="70.3881" ry="18"/>
<text text-anchor="middle" x="898.1938" y="-86.3" font-family="Times,serif" font-size="14.00" fill="#000000">sqgate_3875</text>
</g>
<!-- sqgate_3869&#45;&gt;sqgate_3875 -->
<g id="edge29" class="edge">
<title>sqgate_3869&#45;&gt;sqgate_3875</title>
<path fill="none" stroke="#000000" d="M892.9602,-143.8314C893.7088,-136.131 894.599,-126.9743 895.431,-118.4166"/>
<polygon fill="#000000" stroke="#000000" points="898.9194,-118.7051 896.4036,-108.4133 891.9523,-118.0276 898.9194,-118.7051"/>
</g>
<!-- sqgate_3875&#45;&gt;ccx -->
<g id="edge30" class="edge">
<title>sqgate_3875&#45;&gt;ccx</title>
<path fill="none" stroke="#000000" d="M847.366,-77.5329C838.0325,-75.4964 828.3476,-73.5495 819.1938,-72 677.2108,-47.9664 637.3487,-69.0665 497.1938,-36 491.7912,-34.7254 486.1688,-33.0303 480.7411,-31.1889"/>
<polygon fill="#000000" stroke="#000000" points="481.8655,-27.8738 471.2711,-27.7756 479.4919,-34.4591 481.8655,-27.8738"/>
</g>
<!-- sqgate_3875&#45;&gt;cx -->
<g id="edge31" class="edge">
<title>sqgate_3875&#45;&gt;cx</title>
<path fill="none" stroke="#000000" d="M845.9857,-77.8146C837.0599,-75.8144 827.8697,-73.8068 819.1938,-72 729.7322,-53.3693 623.9421,-34.113 569.5377,-24.4124"/>
<polygon fill="#000000" stroke="#000000" points="570.1357,-20.9639 559.6773,-22.6586 568.9098,-27.8558 570.1357,-20.9639"/>
</g>
<!-- swap -->
<g id="node20" class="node">
<title>swap</title>
<ellipse fill="none" stroke="#000000" cx="939.1938" cy="-306" rx="34.394" ry="18"/>
<text text-anchor="middle" x="939.1938" y="-302.3" font-family="Times,serif" font-size="14.00" fill="#000000">swap</text>
</g>
<!-- sqgate_3860&#45;&gt;swap -->
<g id="edge35" class="edge">
<title>sqgate_3860&#45;&gt;swap</title>
<path fill="none" stroke="#000000" d="M880.8333,-360.5708C891.0049,-351.0597 903.7234,-339.1671 914.6887,-328.9139"/>
<polygon fill="#000000" stroke="#000000" points="917.388,-331.1816 922.3017,-321.7951 912.607,-326.0686 917.388,-331.1816"/>
</g>
<!-- sqgate_3857&#45;&gt;sqgate_3867 -->
<g id="edge55" class="edge">
<title>sqgate_3857&#45;&gt;sqgate_3867</title>
<path fill="none" stroke="#000000" d="M495.6104,-439.2636C431.0733,-424.2151 326.3466,-390.8384 263.1938,-324 246.9925,-306.8532 238.0272,-281.3654 233.2381,-261.8862"/>
<polygon fill="#000000" stroke="#000000" points="236.6369,-261.0468 231.0429,-252.0492 229.805,-262.5714 236.6369,-261.0468"/>
</g>
<!-- sqgate_3862 -->
<g id="node22" class="node">
<title>sqgate_3862</title>
<ellipse fill="none" stroke="#000000" cx="658.1938" cy="-306" rx="70.3881" ry="18"/>
<text text-anchor="middle" x="658.1938" y="-302.3" font-family="Times,serif" font-size="14.00" fill="#000000">sqgate_3862</text>
</g>
<!-- sqgate_3857&#45;&gt;sqgate_3862 -->
<g id="edge38" class="edge">
<title>sqgate_3857&#45;&gt;sqgate_3862</title>
<path fill="none" stroke="#000000" d="M565.4044,-432.0535C583.9131,-406.9096 617.6785,-361.0396 638.9723,-332.1122"/>
<polygon fill="#000000" stroke="#000000" points="642.0401,-333.8486 645.1496,-323.7204 636.4027,-329.6989 642.0401,-333.8486"/>
</g>
<!-- sqgate_3863 -->
<g id="node25" class="node">
<title>sqgate_3863</title>
<ellipse fill="none" stroke="#000000" cx="500.1938" cy="-378" rx="70.3881" ry="18"/>
<text text-anchor="middle" x="500.1938" y="-374.3" font-family="Times,serif" font-size="14.00" fill="#000000">sqgate_3863</text>
</g>
<!-- sqgate_3857&#45;&gt;sqgate_3863 -->
<g id="edge48" class="edge">
<title>sqgate_3857&#45;&gt;sqgate_3863</title>
<path fill="none" stroke="#000000" d="M539.3398,-432.2022C533.2148,-423.7214 525.7688,-413.4115 519.0218,-404.0696"/>
<polygon fill="#000000" stroke="#000000" points="521.7724,-401.9001 513.0801,-395.8425 516.0976,-405.9986 521.7724,-401.9001"/>
</g>
<!-- sqgate_3862&#45;&gt;sqgate_3855 -->
<g id="edge45" class="edge">
<title>sqgate_3862&#45;&gt;sqgate_3855</title>
<path fill="none" stroke="#000000" d="M630.3617,-289.3008C613.8531,-279.3956 592.7316,-266.7227 574.874,-256.0082"/>
<polygon fill="#000000" stroke="#000000" points="576.2506,-252.7524 565.8749,-250.6087 572.6491,-258.7549 576.2506,-252.7524"/>
</g>
<!-- sqgate_3862&#45;&gt;x -->
<g id="edge46" class="edge">
<title>sqgate_3862&#45;&gt;x</title>
<path fill="none" stroke="#000000" d="M712.9562,-294.6232C736.3094,-286.7691 761.3279,-273.671 775.1938,-252 783.817,-238.5226 782.6195,-230.1725 775.1938,-216 765.5839,-197.6589 746.6015,-184.309 729.7697,-175.4712"/>
<polygon fill="#000000" stroke="#000000" points="731.2318,-172.2901 720.7131,-171.0226 728.1456,-178.573 731.2318,-172.2901"/>
</g>
<!-- sqgate_3862&#45;&gt;sqgate_3856 -->
<g id="edge47" class="edge">
<title>sqgate_3862&#45;&gt;sqgate_3856</title>
<path fill="none" stroke="#000000" d="M667.7828,-287.8314C672.0908,-279.6688 677.2624,-269.87 682.0057,-260.8827"/>
<polygon fill="#000000" stroke="#000000" points="685.1672,-262.3909 686.7395,-251.9134 678.9765,-259.1236 685.1672,-262.3909"/>
</g>
<!-- sqgate_3865 -->
<g id="node23" class="node">
<title>sqgate_3865</title>
<ellipse fill="none" stroke="#000000" cx="386.1938" cy="-162" rx="70.3881" ry="18"/>
<text text-anchor="middle" x="386.1938" y="-158.3" font-family="Times,serif" font-size="14.00" fill="#000000">sqgate_3865</text>
</g>
<!-- sqgate_3862&#45;&gt;sqgate_3865 -->
<g id="edge39" class="edge">
<title>sqgate_3862&#45;&gt;sqgate_3865</title>
<path fill="none" stroke="#000000" d="M606.3169,-293.6758C551.6213,-280.405 471.6436,-260.106 459.1938,-252 434.631,-236.0072 414.383,-209.0693 401.4938,-188.8233"/>
<polygon fill="#000000" stroke="#000000" points="404.321,-186.7392 396.1005,-180.0553 398.3587,-190.4067 404.321,-186.7392"/>
</g>
<!-- sqgate_3865&#45;&gt;cx -->
<g id="edge41" class="edge">
<title>sqgate_3865&#45;&gt;cx</title>
<path fill="none" stroke="#000000" d="M414.9002,-145.5432C430.6708,-135.7535 450.0452,-122.4463 465.1938,-108 485.6256,-88.5154 504.6106,-62.4335 517.2986,-43.3644"/>
<polygon fill="#000000" stroke="#000000" points="520.2977,-45.173 522.8337,-34.8861 514.4362,-41.3462 520.2977,-45.173"/>
</g>
<!-- sqgate_3865&#45;&gt;sqgate_3876 -->
<g id="edge40" class="edge">
<title>sqgate_3865&#45;&gt;sqgate_3876</title>
<path fill="none" stroke="#000000" d="M351.52,-146.1993C328.1607,-135.5546 297.1567,-121.4262 272.0793,-109.9985"/>
<polygon fill="#000000" stroke="#000000" points="273.3377,-106.7257 262.7867,-105.7638 270.435,-113.0955 273.3377,-106.7257"/>
</g>
<!-- sqgate_3872 -->
<g id="node24" class="node">
<title>sqgate_3872</title>
<ellipse fill="none" stroke="#000000" cx="386.1938" cy="-90" rx="70.3881" ry="18"/>
<text text-anchor="middle" x="386.1938" y="-86.3" font-family="Times,serif" font-size="14.00" fill="#000000">sqgate_3872</text>
</g>
<!-- sqgate_3865&#45;&gt;sqgate_3872 -->
<g id="edge42" class="edge">
<title>sqgate_3865&#45;&gt;sqgate_3872</title>
<path fill="none" stroke="#000000" d="M386.1938,-143.8314C386.1938,-136.131 386.1938,-126.9743 386.1938,-118.4166"/>
<polygon fill="#000000" stroke="#000000" points="389.6939,-118.4132 386.1938,-108.4133 382.6939,-118.4133 389.6939,-118.4132"/>
</g>
<!-- sqgate_3872&#45;&gt;ccx -->
<g id="edge43" class="edge">
<title>sqgate_3872&#45;&gt;ccx</title>
<path fill="none" stroke="#000000" d="M401.5196,-72.2022C409.5555,-62.8703 419.4982,-51.3239 428.1392,-41.2892"/>
<polygon fill="#000000" stroke="#000000" points="430.8557,-43.4983 434.7288,-33.6368 425.5513,-38.9307 430.8557,-43.4983"/>
</g>
<!-- sqgate_3872&#45;&gt;cx -->
<g id="edge44" class="edge">
<title>sqgate_3872&#45;&gt;cx</title>
<path fill="none" stroke="#000000" d="M418.8178,-74.0209C443.6091,-61.8782 477.4976,-45.2797 501.9439,-33.306"/>
<polygon fill="#000000" stroke="#000000" points="503.6956,-36.3454 511.1367,-28.8035 500.6165,-30.059 503.6956,-36.3454"/>
</g>
<!-- sqgate_3863&#45;&gt;sqgate_3866 -->
<g id="edge49" class="edge">
<title>sqgate_3863&#45;&gt;sqgate_3866</title>
<path fill="none" stroke="#000000" d="M500.1938,-359.8314C500.1938,-352.131 500.1938,-342.9743 500.1938,-334.4166"/>
<polygon fill="#000000" stroke="#000000" points="503.6939,-334.4132 500.1938,-324.4133 496.6939,-334.4133 503.6939,-334.4132"/>
</g>
<!-- sqgate_3859 -->
<g id="node26" class="node">
<title>sqgate_3859</title>
<ellipse fill="none" stroke="#000000" cx="342.1938" cy="-306" rx="70.3881" ry="18"/>
<text text-anchor="middle" x="342.1938" y="-302.3" font-family="Times,serif" font-size="14.00" fill="#000000">sqgate_3859</text>
</g>
<!-- sqgate_3863&#45;&gt;sqgate_3859 -->
<g id="edge50" class="edge">
<title>sqgate_3863&#45;&gt;sqgate_3859</title>
<path fill="none" stroke="#000000" d="M465.52,-362.1993C442.1607,-351.5546 411.1567,-337.4262 386.0793,-325.9985"/>
<polygon fill="#000000" stroke="#000000" points="387.3377,-322.7257 376.7867,-321.7638 384.435,-329.0955 387.3377,-322.7257"/>
</g>
<!-- sqgate_3859&#45;&gt;sqgate_3855 -->
<g id="edge52" class="edge">
<title>sqgate_3859&#45;&gt;sqgate_3855</title>
<path fill="none" stroke="#000000" d="M382.8051,-291.0816C413.5234,-279.7973 455.8568,-264.2462 488.5808,-252.2252"/>
<polygon fill="#000000" stroke="#000000" points="489.7904,-255.5096 497.9702,-248.776 487.3767,-248.9389 489.7904,-255.5096"/>
</g>
<!-- sqgate_3859&#45;&gt;x -->
<g id="edge53" class="edge">
<title>sqgate_3859&#45;&gt;x</title>
<path fill="none" stroke="#000000" d="M357.4474,-288.2176C376.4521,-267.3253 410.9875,-233.3204 448.1938,-216 535.2338,-175.4807 569.9246,-209.7945 661.1938,-180 663.0869,-179.382 665.0048,-178.6785 666.9183,-177.9162"/>
<polygon fill="#000000" stroke="#000000" points="668.6002,-180.9988 676.3161,-173.7383 665.7566,-174.6024 668.6002,-180.9988"/>
</g>
<!-- sqgate_3859&#45;&gt;sqgate_3856 -->
<g id="edge54" class="edge">
<title>sqgate_3859&#45;&gt;sqgate_3856</title>
<path fill="none" stroke="#000000" d="M394.3942,-293.7779C403.321,-291.7819 412.5134,-289.7852 421.1938,-288 507.9464,-270.1581 530.4412,-269.8419 617.1938,-252 622.619,-250.8842 628.2443,-249.6858 633.8797,-248.4567"/>
<polygon fill="#000000" stroke="#000000" points="634.9839,-251.7972 643.9933,-246.2221 633.4737,-244.962 634.9839,-251.7972"/>
</g>
<!-- sqgate_3859&#45;&gt;sqgate_3865 -->
<g id="edge51" class="edge">
<title>sqgate_3859&#45;&gt;sqgate_3865</title>
<path fill="none" stroke="#000000" d="M341.2181,-287.8591C340.8081,-269.2787 341.8112,-239.8237 350.1938,-216 353.6355,-206.2184 359.2552,-196.4908 365.0422,-188.0426"/>
<polygon fill="#000000" stroke="#000000" points="368.0154,-189.9044 371.049,-179.7532 362.3471,-185.7969 368.0154,-189.9044"/>
</g>
</g>
</svg>
